<svg width="509" height="122" viewBox="0 0 509 122" fill="none" xmlns="http://www.w3.org/2000/svg">
<path d="M484.023 65.1892C485.79 65.0346 488.06 63.946 490.834 61.9231C493.651 59.8498 495.963 57.8909 497.769 56.0464C499.621 54.1979 500.535 53.1342 500.511 52.8553C500.487 52.5763 500.118 52.3744 499.404 52.2494C498.737 52.1204 497.822 52.1068 496.66 52.2084C495.498 52.3101 494.004 52.9092 492.18 54.0058C490.351 55.0558 488.794 56.2695 487.509 57.6467C486.224 59.0239 485.17 60.3576 484.346 61.6476C483.522 62.9377 483.134 63.8616 483.183 64.4195C483.232 64.9774 483.512 65.2339 484.023 65.1892ZM501.687 51.8389C502.552 51.0137 503.03 50.5971 503.123 50.589C504.391 50.6186 505.052 50.6779 505.106 50.7668C505.157 50.8092 505.186 50.8769 505.195 50.9699C505.203 51.0629 505.043 51.3813 504.716 51.9252C504.385 52.4227 503.392 53.6572 501.737 55.6289C497.614 60.4399 495.594 63.3103 495.675 64.2401C495.707 64.612 495.886 64.7837 496.212 64.7553C498.443 64.56 502.442 62.0787 508.209 57.3113L508.44 58.3451C502.61 62.9306 498.417 65.3352 495.861 65.5589C494.605 65.6687 493.927 65.1425 493.825 63.9803C493.719 62.7716 494.304 61.1512 495.578 59.119C490.446 63.6435 486.348 66.0632 483.284 66.3782C482.168 66.4758 481.551 65.8505 481.434 64.5023C481.222 62.0849 482.53 59.3705 485.359 56.3592C488.234 53.3438 492.205 51.6145 497.272 51.1712C498.946 51.0247 500.417 51.2473 501.687 51.8389Z" fill="#82731F"/>
<path d="M488.413 26.0878C488.385 25.7624 488.138 25.62 487.673 25.6607C485.813 25.8234 481.502 29.55 474.738 36.8406C468.021 44.1271 462.029 51.1393 456.763 57.8773C463.079 52.9681 469.966 46.8145 477.423 39.4164C484.88 32.0183 488.543 27.5755 488.413 26.0878ZM463.805 61.2664L464.631 62.6698C464.663 63.0417 464.211 63.7605 463.274 64.8263C462.336 65.892 461.884 66.6109 461.916 66.9828C461.945 67.3082 462.354 67.4363 463.145 67.3672C463.981 67.294 465.003 66.9235 466.209 66.2558C467.416 65.5882 468.483 64.9327 469.41 64.2894C470.334 63.5996 471.433 62.7774 472.708 61.8226C474.025 60.8173 474.728 60.2873 474.817 60.2327L475.048 61.2665C473.438 62.6722 471.257 64.245 468.505 65.9848C465.748 67.6781 463.557 68.596 461.929 68.7383C460.302 68.8807 459.426 68.2313 459.3 66.7901C459.243 66.1393 459.706 65.2789 460.69 64.2091C461.716 63.0887 462.219 62.4123 462.199 62.1799C462.179 61.9474 462.052 61.8414 461.82 61.8617C460.878 61.8036 460.382 61.4956 460.334 60.9377C460.317 60.7518 460.379 60.6527 460.518 60.6405L461.355 60.5673C463.959 60.3395 466.093 59.5672 467.758 58.2505C469.422 56.9337 470.216 55.8336 470.139 54.9503C470.111 54.6249 469.934 54.4764 469.608 54.5049C466.214 54.8018 459.766 58.9965 450.261 67.089L447.934 69.4006C447.764 69.6028 447.308 69.7365 446.564 69.8016C445.82 69.8667 445.436 69.7597 445.411 69.4808C445.399 69.3413 445.476 69.1472 445.641 68.8985C450.043 62.9857 455.003 56.7664 460.522 50.2406C466.041 43.7148 471.477 37.852 476.831 32.6522C482.227 27.4019 485.971 24.6853 488.063 24.5023C489.179 24.4046 489.768 24.7045 489.829 25.4018C489.959 26.8895 487.863 29.9772 483.542 34.665C479.263 39.3022 474.405 44.0135 468.968 48.799C463.531 53.5844 458.831 57.4153 454.866 60.2918C453.444 62.2431 452.638 63.4614 452.446 63.9466C454.759 62.011 456.619 60.5132 458.025 59.4532C459.428 58.3468 461.289 57.13 463.608 55.8028C465.971 54.425 468.012 53.6608 469.732 53.5103C471.452 53.3598 472.373 53.9819 472.495 55.3766C472.617 56.7713 471.791 58.0381 470.017 59.1771C468.285 60.2655 466.536 60.8869 464.769 61.0415C464.398 61.074 464.142 61.0964 464.002 61.1086C463.859 61.0743 463.793 61.1269 463.805 61.2664Z" fill="#82731F"/>
<path d="M424.333 57.8335C424.549 57.6272 425.173 57.5259 426.204 57.5294C426.723 57.5776 426.989 57.6714 427.001 57.8109C427.009 57.9039 426.91 58.1 426.701 58.3993C426.493 58.6986 425.475 59.9119 423.647 62.0393C419.863 66.4459 418.016 69.1605 418.106 70.1833C418.126 70.4157 418.276 70.5198 418.555 70.4954C420.135 70.3571 425.584 66.5075 434.9 58.9468L436.649 57.2479C436.865 57.0416 437.301 56.9333 437.956 56.9228C438.611 56.9123 438.956 57.1163 438.993 57.5347C439.009 57.7207 438.954 57.8895 438.826 58.0412C432.83 64.4682 429.885 68.2861 429.991 69.4948C430.036 70.0062 430.43 70.2293 431.174 70.1643C431.918 70.0992 432.893 69.7328 434.099 69.0651C435.306 68.3974 436.373 67.7419 437.3 67.0987C438.223 66.4089 439.323 65.5866 440.598 64.6319C441.915 63.6266 442.618 63.0966 442.707 63.042L442.938 64.0758C440.922 65.6575 438.603 67.2658 435.982 68.9004C433.361 70.535 431.33 71.4154 429.889 71.5415C428.494 71.6635 427.746 71.1434 427.644 69.9812C427.502 68.354 428.572 66.129 430.855 63.306C423.971 68.6864 419.669 71.4519 417.949 71.6024C416.926 71.6918 416.362 71.1322 416.256 69.9235C416.032 67.3666 418.725 63.3366 424.333 57.8335Z" fill="#82731F"/>
<path d="M402.573 58.0509C402.734 57.7557 402.931 57.598 403.164 57.5776C403.443 57.5532 403.594 57.6805 403.619 57.9594C403.643 58.2384 403.528 58.5295 403.273 58.8328C403.019 59.1362 402.885 60.0145 402.872 61.4679C402.901 62.8707 402.702 64.6213 402.277 66.7197C401.848 68.7716 400.96 70.6762 399.615 72.4335C399.623 72.5264 399.72 72.5648 399.906 72.5485C400.231 72.5201 401.368 71.8585 403.316 70.5638L404.25 69.9902C405.931 68.8594 407.71 67.5092 409.587 65.9396L409.818 66.9734C402.976 72.3033 397.626 75.1371 393.768 75.4746C392.234 75.6089 391.089 75.3811 390.335 74.7912C389.534 74.2054 389.099 73.5174 389.03 72.7271C388.961 71.9368 389.092 71.2929 389.423 70.7955C389.75 70.2516 390.193 69.9552 390.751 69.9064C391.448 69.8454 391.829 70.1868 391.894 70.9306C391.935 71.3955 391.6 71.8464 390.889 72.2834C390.668 72.4432 390.572 72.6859 390.601 73.0113C390.629 73.3367 390.941 73.6842 391.535 74.0538C392.087 74.474 392.666 74.6576 393.27 74.6047C395.315 74.4258 396.947 72.9948 398.164 70.3118C399.424 67.5783 400.152 64.9147 400.346 62.3212L400.328 62.112C396.087 65.5748 393.217 67.8403 391.718 68.9083L391.423 67.9504C398.574 62.4061 402.29 59.1062 402.573 58.0509Z" fill="#82731F"/>
<path d="M400.912 38.17C400.929 38.356 400.703 38.727 400.237 39.2831C399.766 39.7927 398.912 40.7341 397.673 42.1073C396.477 43.4299 395.025 45.0326 393.316 46.9154C391.607 48.7982 390.175 50.3756 389.022 51.6476L400.667 50.6288C400.807 50.6166 400.885 50.7034 400.901 50.8894C400.95 51.4473 400.765 51.7445 400.346 51.7811L387.934 52.8671C376.932 65.2598 371.523 72.5021 371.706 74.5941C371.75 75.1055 372.098 75.3327 372.749 75.2758C373.865 75.1782 376.971 73.1966 382.066 69.3311C382.947 68.6919 383.477 68.3177 383.655 68.2084L383.886 69.2422C377.929 73.9794 373.626 76.4639 370.976 76.6957C369.581 76.8177 368.839 76.3674 368.75 75.3446C368.624 73.9034 369.545 71.8553 371.515 69.2002C374.096 65.5079 378.479 60.1823 384.662 53.2235L372.668 54.2729C372.017 54.3298 371.676 54.1724 371.643 53.8004C371.607 53.382 371.774 53.1566 372.146 53.124L385.744 51.9344L398.568 37.8832C398.785 37.6769 399.22 37.5685 399.875 37.5581C400.53 37.5476 400.876 37.7516 400.912 38.17Z" fill="#82731F"/>
<path d="M360.315 26.8953C356.317 27.2451 351.672 29.8298 346.378 34.6495C341.085 39.4692 336.268 45.1841 331.927 51.7942L333.252 51.6783C336.507 51.3936 339.741 50.6187 342.957 49.3537C346.168 48.0422 348.983 46.4842 351.402 44.6799C353.867 42.8715 356.043 40.9713 357.929 38.9793C359.863 36.9832 361.314 35.0995 362.284 33.3283C363.253 31.557 363.687 30.0903 363.585 28.9281C363.451 27.394 362.361 26.7164 360.315 26.8953ZM320.146 36.804C323.865 36.4786 327.527 35.5024 331.133 33.8753C334.734 32.2018 337.753 30.2981 340.189 28.1642C342.668 25.9799 344.628 23.7473 346.068 21.4664C347.55 19.135 348.216 17.1092 348.066 15.3891C347.798 12.3209 345.199 11.0023 340.272 11.4334C336.134 11.7954 332.263 13.3286 328.658 16.0331C325.054 18.7376 322.197 21.9621 320.089 25.7068C317.98 29.4515 316.761 33.1886 316.432 36.9182C317.653 36.9519 318.891 36.9138 320.146 36.804ZM322.553 76.3648C322.972 81.1531 326.017 83.2992 331.689 82.803C336.013 82.4248 341.083 79.8732 346.9 75.1482C352.717 70.4232 358.006 65.0183 362.767 58.9336C367.571 52.7982 371.593 46.5673 374.834 40.2407C378.071 33.8677 379.541 28.9844 379.244 25.5906C378.943 22.1505 376.886 20.5971 373.074 20.9306C372.098 21.016 370.755 21.4615 369.045 22.2669C367.378 23.0217 366.182 23.8056 365.457 24.6186C364.743 24.4936 364.372 24.2684 364.343 23.943C364.303 23.4781 365.319 22.7802 367.393 21.8493C369.462 20.8719 371.426 20.3019 373.286 20.1392C377.842 19.7406 380.295 21.5403 380.645 25.5384C380.86 28.0023 380.245 31.1478 378.8 34.975C377.355 38.8022 375.387 42.8157 372.897 47.0153C370.403 51.1685 367.422 55.3877 363.956 59.6728C360.49 63.9578 356.917 67.8306 353.238 71.2911C349.601 74.701 345.823 77.5612 341.903 79.8717C337.982 82.1822 334.325 83.4859 330.932 83.7828C327.538 84.0797 324.885 83.4686 322.972 81.9496C321.105 80.4264 320.044 78.2005 319.787 75.2717C319.255 69.1816 321.621 61.6902 326.886 52.7975C323.19 52.3244 320.358 51.0029 318.388 48.833C316.464 46.6591 315.36 43.945 315.076 40.6907C314.998 39.8074 314.983 38.8251 315.029 37.7436C310.8 37.5983 307.552 36.6176 305.285 34.8016C303.014 32.9391 301.755 30.59 301.506 27.7541C301.14 23.5701 302.756 19.283 306.354 14.8927C309.948 10.4559 314.646 7.39818 320.448 5.7194L320.749 6.74711C315.619 8.08594 311.434 10.8412 308.191 15.013C304.949 19.1848 303.507 23.3162 303.865 27.4072C304.093 30.0106 305.148 32.1669 307.031 33.8759C308.863 35.5426 311.551 36.5488 315.095 36.8946C315.497 32.9244 316.793 28.9932 318.982 25.101C321.213 21.1581 324.241 17.7546 328.066 14.8903C331.938 12.022 336.105 10.3926 340.568 10.0021C343.264 9.76624 345.333 10.1239 346.775 11.0752C348.259 11.976 349.081 13.3329 349.239 15.146C349.398 16.959 348.786 19.0737 347.405 21.49C346.024 23.9062 344.098 26.253 341.627 28.5304C339.156 30.8077 335.957 32.7974 332.03 34.4995C328.15 36.1974 324.025 37.2376 319.655 37.6199C318.168 37.75 317.071 37.7991 316.366 37.7672C316.37 38.891 316.397 39.7319 316.446 40.2898C316.71 43.3116 317.775 45.8417 319.64 47.8803C321.5 49.8724 324.162 51.1151 327.625 51.6085C331.894 44.7236 337.001 38.8427 342.946 33.9661C348.886 29.043 354.785 26.3252 360.642 25.8127C363.339 25.5768 364.776 26.4816 364.955 28.5271C365.102 30.2007 364.351 32.3276 362.703 34.9077C361.097 37.4373 358.906 39.9712 356.13 42.5095C353.354 45.0478 349.853 47.3216 345.625 49.3311C341.393 51.294 337.046 52.4707 332.583 52.8612L331.188 52.9832C328.347 57.4479 326.124 61.7646 324.522 65.9335C322.965 70.0983 322.309 73.5754 322.553 76.3648Z" fill="#82731F"/>
<path d="M290.13 63.4615C290.187 64.1124 289.87 64.7725 289.179 65.442C288.488 66.1114 287.817 66.4746 287.166 66.5315C286.562 66.5844 286.237 66.3551 286.193 65.8438C286.148 65.3324 286.469 64.7187 287.156 64.0028C287.839 63.2404 288.482 62.8328 289.087 62.7799C289.738 62.7229 290.085 62.9502 290.13 63.4615ZM284.862 71.5113C279.082 77.7321 276.255 81.563 276.381 83.0042C276.422 83.4691 276.767 83.6731 277.418 83.6161C278.023 83.5633 278.928 83.203 280.134 82.5353C281.341 81.8676 282.408 81.2121 283.335 80.5688C284.259 79.8791 285.358 79.0568 286.633 78.1021C287.95 77.0967 288.653 76.5668 288.742 76.5122L288.973 77.546C286.957 79.1277 284.638 80.7359 282.017 82.3706C279.396 84.0052 277.389 84.8835 275.994 85.0056C274.553 85.1316 273.781 84.6136 273.68 83.4513C273.594 82.4751 274.303 80.9375 275.806 78.8385C277.304 76.693 278.826 74.8033 280.369 73.1692L282.684 70.7181C282.9 70.5118 283.336 70.4034 283.991 70.393C284.646 70.3825 284.992 70.5865 285.028 71.0049C285.044 71.1909 284.989 71.3597 284.862 71.5113Z" fill="#82731F"/>
<path d="M283.015 44.0578C282.986 43.7324 282.74 43.59 282.275 43.6307C280.415 43.7934 276.104 47.52 269.34 54.8106C262.623 62.0971 256.631 69.1093 251.365 75.8473C257.681 70.9381 264.568 64.7845 272.025 57.3864C279.482 49.9883 283.145 45.5455 283.015 44.0578ZM256.342 84.5466C256.395 85.1509 256.724 85.4267 257.328 85.3738C257.979 85.3169 258.907 84.9545 260.114 84.2869C261.32 83.6192 262.387 82.9637 263.315 82.3204C264.238 81.6306 265.337 80.8084 266.612 79.8536C267.93 78.8483 268.633 78.3183 268.722 78.2637L268.953 79.2975C263.043 84.0306 258.832 86.507 256.322 86.7266C255.113 86.8324 254.456 86.2809 254.35 85.0722C254.245 83.8635 254.873 82.4734 256.234 80.9021C257.638 79.2803 259.033 77.8231 260.419 76.5307C261.851 75.2343 262.545 74.3304 262.501 73.819C262.484 73.633 262.313 73.5543 261.988 73.5828C260.919 73.6763 258.131 75.2787 253.625 78.3899C249.115 81.4547 246.194 83.6777 244.863 85.059L242.536 87.3706C242.366 87.5729 241.909 87.7065 241.165 87.7716C240.422 87.8367 240.038 87.7297 240.013 87.4508C240.001 87.3113 240.078 87.1172 240.243 86.8685C244.645 80.9557 249.605 74.7364 255.124 68.2106C260.643 61.6848 266.079 55.822 271.433 50.6222C276.829 45.3719 280.573 42.6553 282.665 42.4723C283.781 42.3746 284.369 42.6745 284.43 43.3718C284.561 44.8595 282.465 47.9472 278.144 52.635C273.865 57.2722 269.007 61.9836 263.57 66.769C258.133 71.5544 253.433 75.3853 249.468 78.2618C248.004 80.2637 247.178 81.5305 246.99 82.0622C247.176 82.0459 247.313 82.0105 247.402 81.9559C250.195 79.6036 253.123 77.4735 256.189 75.5658C259.254 73.658 261.205 72.6675 262.042 72.5943C262.879 72.5211 263.451 72.635 263.758 72.936C264.112 73.233 264.306 73.5674 264.338 73.9393C264.436 75.0551 263.802 76.3753 262.436 77.9002C261.117 79.4209 259.762 80.8042 258.372 82.0501C256.982 83.296 256.306 84.1282 256.342 84.5466Z" fill="#82731F"/>
<path d="M230.331 73.1202C230.492 72.825 230.689 72.6672 230.922 72.6468C231.2 72.6224 231.352 72.7497 231.377 73.0286C231.401 73.3076 231.286 73.5987 231.031 73.9021C230.777 74.2054 230.643 75.0837 230.629 76.5371C230.658 77.9399 230.46 79.6905 230.035 81.7889C229.605 83.8408 228.718 85.7454 227.373 87.5027C227.381 87.5956 227.478 87.634 227.664 87.6177C227.989 87.5893 229.126 86.9277 231.074 85.633L232.007 85.0594C233.689 83.9286 235.468 82.5784 237.345 81.0088L237.576 82.0426C230.734 87.3725 225.384 90.2063 221.526 90.5439C219.991 90.6781 218.847 90.4503 218.093 89.8604C217.292 89.2747 216.857 88.5866 216.788 87.7963C216.719 87.006 216.85 86.3621 217.181 85.8647C217.508 85.3208 217.951 85.0244 218.509 84.9756C219.206 84.9146 219.587 85.256 219.652 85.9998C219.693 86.4647 219.358 86.9157 218.646 87.3526C218.426 87.5124 218.33 87.7551 218.359 88.0805C218.387 88.4059 218.699 88.7534 219.293 89.123C219.845 89.5432 220.424 89.7268 221.028 89.6739C223.073 89.495 224.705 88.064 225.922 85.381C227.182 82.6475 227.91 79.9839 228.104 77.3904L228.086 77.1812C223.845 80.644 220.975 82.9095 219.475 83.9775L219.181 83.0196C226.332 77.4753 230.048 74.1755 230.331 73.1202Z" fill="#82731F"/>
<path d="M187.192 91.1585C188.959 91.004 191.229 89.9153 194.004 87.8925C196.82 85.8191 199.132 83.8602 200.938 82.0158C202.79 80.1673 203.704 79.1035 203.68 78.8246C203.656 78.5457 203.287 78.3437 202.573 78.2188C201.906 78.0898 200.991 78.0761 199.829 78.1778C198.667 78.2795 197.173 78.8786 195.349 79.9751C193.52 81.0252 191.963 82.2388 190.678 83.616C189.393 84.9932 188.339 86.3269 187.515 87.6169C186.691 88.907 186.303 89.831 186.352 90.3888C186.401 90.9467 186.681 91.2033 187.192 91.1585ZM204.856 77.8082C205.721 76.9831 206.199 76.5664 206.292 76.5583C207.56 76.5879 208.221 76.6472 208.275 76.7361C208.326 76.7786 208.355 76.8463 208.364 76.9392C208.372 77.0322 208.212 77.3507 207.885 77.8946C207.554 78.392 206.561 79.6266 204.906 81.5983C200.783 86.4093 198.763 89.2796 198.844 90.2094C198.876 90.5813 199.055 90.7531 199.381 90.7246C201.612 90.5294 205.611 88.048 211.378 83.2807L211.609 84.3145C205.779 88.9 201.586 91.3046 199.03 91.5283C197.774 91.6381 197.096 91.1119 196.994 89.9496C196.888 88.7409 197.473 87.1205 198.747 85.0884C193.615 89.6128 189.517 92.0326 186.453 92.3475C185.337 92.4451 184.72 91.8198 184.603 90.4716C184.391 88.0542 185.699 85.3398 188.528 82.3285C191.403 79.3132 195.374 77.5838 200.441 77.1405C202.115 76.9941 203.586 77.2167 204.856 77.8082Z" fill="#82731F"/>
<path d="M170.964 78.314C171.126 78.0188 171.323 77.8611 171.555 77.8407C171.834 77.8163 171.986 77.9436 172.01 78.2225C172.035 78.5015 171.92 78.7926 171.665 79.0959C171.411 79.3993 171.277 80.2776 171.263 81.731C171.292 83.1338 171.094 84.8844 170.669 86.9828C170.239 89.0347 169.352 90.9393 168.007 92.6965C168.015 92.7895 168.112 92.8279 168.298 92.8116C168.623 92.7831 169.76 92.1216 171.708 90.8269L172.641 90.2533C174.322 89.1225 176.102 87.7723 177.979 86.2027L178.21 87.2365C171.368 92.5664 166.018 95.4002 162.159 95.7377C160.625 95.872 159.481 95.6441 158.727 95.0543C157.926 94.4685 157.491 93.7805 157.422 92.9902C157.353 92.1999 157.484 91.556 157.815 91.0586C158.142 90.5146 158.585 90.2183 159.143 90.1695C159.84 90.1085 160.221 90.4499 160.286 91.1937C160.327 91.6586 159.992 92.1095 159.28 92.5465C159.06 92.7063 158.964 92.9489 158.993 93.2744C159.021 93.5998 159.333 93.9473 159.927 94.3169C160.479 94.737 161.057 94.9207 161.662 94.8678C163.707 94.6888 165.339 93.2579 166.556 90.5749C167.816 87.8413 168.543 85.1778 168.738 82.5843L168.72 82.3751C164.479 85.8379 161.609 88.1034 160.109 89.1714L159.815 88.2135C166.965 82.6691 170.682 79.3693 170.964 78.314Z" fill="#82731F"/>
<path d="M127.826 96.3524C129.593 96.1979 131.863 95.1092 134.637 93.0863C137.454 91.013 139.765 89.0541 141.572 87.2096C143.424 85.3611 144.338 84.2974 144.314 84.0185C144.289 83.7395 143.92 83.5376 143.207 83.4127C142.54 83.2836 141.625 83.27 140.463 83.3717C139.301 83.4733 137.807 84.0724 135.982 85.169C134.154 86.219 132.597 87.4327 131.312 88.8099C130.027 90.1871 128.973 91.5208 128.149 92.8108C127.325 94.1009 126.937 95.0249 126.986 95.5827C127.035 96.1406 127.315 96.3972 127.826 96.3524ZM145.49 83.0021C146.354 82.177 146.833 81.7603 146.926 81.7522C148.194 81.7818 148.855 81.8411 148.909 81.93C148.96 81.9724 148.989 82.0401 148.997 82.1331C149.005 82.2261 148.846 82.5445 148.519 83.0885C148.188 83.5859 147.195 84.8204 145.54 86.7921C141.417 91.6031 139.396 94.4735 139.478 95.4033C139.51 95.7752 139.689 95.9469 140.015 95.9185C142.246 95.7232 146.245 93.2419 152.011 88.4745L152.242 89.5083C146.413 94.0938 142.22 96.4984 139.663 96.7221C138.408 96.832 137.73 96.3057 137.628 95.1435C137.522 93.9348 138.107 92.3144 139.381 90.2822C134.249 94.8067 130.151 97.2264 127.087 97.5414C125.971 97.639 125.354 97.0137 125.236 95.6655C125.025 93.2481 126.333 90.5337 129.162 87.5224C132.036 84.5071 136.007 82.7777 141.075 82.3344C142.748 82.188 144.22 82.4105 145.49 83.0021Z" fill="#82731F"/>
<path d="M23.6791 89.3026C27.4302 88.2718 31.0258 87.6059 34.466 87.3049C37.9527 86.9998 41.1636 87.0234 44.0988 87.3756C44.9124 85.4306 45.2582 83.7608 45.1362 82.3661C44.8799 79.4373 42.8225 78.1417 38.9639 78.4793C35.6632 78.768 32.651 79.9451 29.9273 82.0103C27.246 84.025 25.1633 86.4558 23.6791 89.3026ZM28.4112 104.839C30.1882 105.34 32.3552 105.478 34.9121 105.254C41.653 104.665 48.5003 100.739 55.454 93.4791C53.0029 91.164 49.7952 89.5708 45.8308 88.6997C44.4599 91.7708 42.24 94.7758 39.1712 97.7144C36.1023 100.653 32.5156 103.028 28.4112 104.839ZM20.7545 97.6392C20.5552 95.3613 20.9815 93.0052 22.0333 90.5709C17.4861 92.1398 13.9134 94.1388 11.3152 96.5678C8.71298 98.9504 7.4993 101.141 7.67419 103.14C7.79621 104.535 8.63968 105.609 10.2046 106.362C11.812 107.064 14.0336 107.292 16.8694 107.044C19.7517 106.791 22.6186 106.096 25.4702 104.956C22.6193 103.425 21.0474 100.986 20.7545 97.6392ZM43.6839 88.2551C40.6011 87.8221 37.3164 87.7582 33.8297 88.0632C30.3895 88.3642 26.8444 89.0725 23.1944 90.1882C22.0496 92.6306 21.5789 95.0141 21.7822 97.3385C22.0751 100.686 23.755 103.022 26.8221 104.346C30.6011 102.563 33.9998 100.181 37.0181 97.2001C40.0365 94.219 42.2584 91.2374 43.6839 88.2551ZM95.4688 101.081C99.0949 100.763 102.393 99.3739 105.363 96.9123C108.376 94.4002 110.575 91.7016 111.963 88.8164C113.35 85.9311 113.952 83.4425 113.769 81.3505C113.537 78.7006 112.259 77.4774 109.934 77.6807C107.47 77.8963 104.992 79.2843 102.499 81.8446C100.002 84.3585 97.9953 87.3916 96.4792 90.9439C95.0095 94.4922 94.4048 97.754 94.6651 100.729L94.6956 101.078C94.8391 101.112 95.0969 101.113 95.4688 101.081ZM48.338 65.1515L48.5114 66.3309L49.4877 66.2455C53.6717 65.8795 57.6422 64.9465 61.3991 63.4467C65.1985 61.8963 68.2993 60.126 70.7016 58.1357C73.104 56.1454 74.9636 54.109 76.2804 52.0263C77.6396 49.893 78.2501 48.0361 78.1118 46.4554C77.9735 44.8748 77.1917 43.7018 75.7662 42.9365C74.3832 42.1206 72.39 41.8265 69.7866 42.0543C65.835 42.4 62.1246 43.8957 58.6553 46.5415C55.186 49.1873 52.5245 52.2308 50.6707 55.6722C48.8634 59.1094 48.0858 62.2692 48.338 65.1515ZM56.9348 32.498L57.2172 33.3165C50.0544 34.9738 44.2295 38.2707 39.7427 43.2072C35.2983 48.0931 33.2754 52.8141 33.674 57.37C33.9099 60.0664 35.0834 62.2357 37.1946 63.8779C39.3017 65.4737 42.3261 66.3099 46.2678 66.3867C46.1016 65.558 45.9982 64.9112 45.9575 64.4463C45.7541 62.1219 46.1955 59.6708 47.2816 57.093C48.3637 54.4687 49.9289 52.0129 51.9774 49.7257C54.0218 47.3919 56.6586 45.4045 59.8879 43.7635C63.1131 42.076 66.3528 41.0899 69.607 40.8052C72.9077 40.5164 75.3022 40.8456 76.7904 41.7929C78.3211 42.6895 79.1657 44.0444 79.3243 45.8575C79.483 47.6706 78.8887 49.7135 77.5417 51.9862C76.1906 54.2124 74.2735 56.3945 71.7903 58.5324C69.3072 60.6702 66.0518 62.5478 62.0241 64.165C58.0429 65.7781 53.7511 66.786 49.1486 67.1886L48.7302 67.2253C50.0987 71.0873 53.6885 72.7642 59.4996 72.2558C62.475 71.9955 65.9541 70.801 69.9371 68.6725C73.92 66.5439 77.9379 63.4754 81.9906 59.4669L82.4578 59.9882C81.1689 61.3189 79.5203 62.8216 77.5119 64.4964C75.4995 66.1246 72.7029 67.8918 69.122 69.7978C65.5412 71.7038 62.2399 72.789 59.2181 73.0534C52.5237 73.639 48.3283 71.7341 46.6321 67.3385C42.2802 67.3914 38.903 66.5391 36.5007 64.7818C34.1449 63.0204 32.8389 60.6753 32.5827 57.7465C32.1719 53.0511 34.227 48.1634 38.7481 43.0834C43.3157 37.9993 49.378 34.4708 56.9348 32.498ZM108.002 109.4C109.489 109.27 111.045 108.853 112.67 108.148L113.259 108.448C111.887 109.364 109.829 109.943 107.086 110.183C102.949 110.545 99.78 109.932 97.5799 108.344C95.4304 106.799 94.1577 104.568 93.762 101.651C91.8153 101.353 90.1664 100.444 88.8153 98.9222C87.4602 97.3544 86.6891 95.5012 86.502 93.3627C86.3108 91.1777 86.6441 88.8297 87.5019 86.3187C88.3596 83.8078 89.4367 81.3947 90.7332 79.0796C92.0762 76.7604 93.8829 74.1195 96.1534 71.157C98.4238 68.1945 100.429 65.6769 102.168 63.6041C103.907 61.5313 106.129 59.0883 108.835 56.2751C112.524 52.3922 116.159 48.7013 119.741 45.2024L119.589 45.0752C106.209 54.9121 90.1069 71.9202 71.2826 96.0996L67.8229 101.532C67.6027 101.692 67.3995 101.78 67.2136 101.796C67.0276 101.812 66.9225 101.681 66.8981 101.402L67.6067 99.8643L73.6162 88.2363C77.4667 80.3105 80.1704 74.8039 81.7272 71.7165C87.1892 60.7922 92.4031 52.6535 97.3687 47.3003C96.5784 47.3695 94.5823 49.1837 91.3803 52.7429L89.7834 54.5691C75.3582 72.2737 64.5264 85.0028 57.288 92.7566C59.8786 95.0595 61.2999 97.6522 61.5521 100.535C61.8653 104.114 60.244 107.535 56.6881 110.797C53.1828 114.102 47.783 116.636 40.4889 118.398L40.4218 117.631C46.7943 116.043 51.5745 113.657 54.7626 110.474C57.9547 107.337 59.3982 104.026 59.0931 100.539C58.8898 98.2144 57.881 96.0541 56.0668 94.0579C52.5859 97.6416 49.1329 100.473 45.7078 102.553C42.2826 104.633 38.7803 105.829 35.2006 106.143C31.6209 106.456 28.8142 106.233 26.7803 105.474C23.472 106.747 20.1675 107.528 16.8668 107.817C13.566 108.106 10.9856 107.793 9.12548 106.878C7.26941 106.01 6.2702 104.762 6.12785 103.135C5.93262 100.903 7.2695 98.5145 10.1385 95.9681C13.0034 93.3752 17.1046 91.2597 22.4422 89.6216C23.9909 86.4412 26.2816 83.7112 29.3145 81.4315C32.3898 79.1013 35.8567 77.7674 39.7153 77.4298C42.0863 77.2224 43.8976 77.5792 45.1493 78.5003C46.3969 79.3748 47.094 80.6489 47.2404 82.3226C47.3868 83.9962 47.0532 85.8055 46.2396 87.7504C50.58 88.6355 54.0373 90.1366 56.6116 92.2536C56.951 91.8491 58.1257 90.5518 60.1358 88.3616C62.1459 86.1714 65.6962 82.043 70.7869 75.9762C75.924 69.9054 80.249 64.7254 83.7618 60.4362L88.9675 54.0783C94.4097 47.7466 99.2054 43.9307 103.355 42.6308C103.866 42.5861 104.134 42.7032 104.158 42.9821C104.179 43.2146 104.053 43.3895 103.783 43.5069C101.701 44.3448 99.828 45.9609 98.1637 48.355C96.4953 50.7027 94.5049 53.9218 92.1927 58.0122C89.8804 62.1026 88.1265 65.3478 86.9311 67.7478L76.6025 87.8345C76.6066 87.8809 76.6783 87.8981 76.8178 87.8859L77.6633 87.1092C85.6828 77.0386 93.1714 68.3964 100.129 61.1825C107.129 53.9181 114.644 47.4519 122.674 41.7838C124.382 40.4165 125.351 39.7226 125.584 39.7023C125.863 39.6779 126.015 39.8051 126.039 40.0841C126.063 40.363 126.033 40.553 125.948 40.6541C125.863 40.7553 124.933 41.633 123.157 43.2874C121.428 44.9378 119.836 46.5527 118.381 48.1321C116.927 49.7116 115.644 51.112 114.533 52.3335C113.422 53.555 111.591 55.6592 109.042 58.6461C106.493 61.633 104.418 64.1567 102.818 66.2173C101.261 68.2274 99.4207 70.7541 97.2978 73.7973C95.1709 76.7941 93.5269 79.4207 92.3658 81.6772C89.4823 87.2698 88.189 91.7629 88.4859 95.1566C88.6689 97.2486 89.6097 98.8996 91.3083 100.109C92.008 100.61 92.8076 100.915 93.7071 101.024C93.4265 97.8161 94.0614 94.3643 95.6118 90.6685C97.1582 86.9261 99.288 83.6949 102.001 80.9747C104.761 78.2505 107.582 76.7623 110.464 76.5101C112.092 76.3677 113.438 76.7652 114.504 77.7026C115.612 78.5894 116.245 79.9393 116.404 81.7524C116.563 83.5655 116.152 85.5688 115.173 87.7625C114.236 89.9057 112.894 91.9672 111.147 93.947C109.399 95.9268 107.161 97.6451 104.43 99.102C101.751 100.601 98.9002 101.483 95.8785 101.747L94.8263 101.769C95.8461 107.536 100.238 110.079 108.002 109.4Z" fill="#82731F"/>
</svg>
